<svg xmlns="http://www.w3.org/2000/svg" viewBox="0 0 227.11 224.24"><defs><style>.cls-1{fill:#fcf7b6;}</style></defs><title>Asset 2</title><g id="Layer_2" data-name="Layer 2"><g id="Layer_1-2" data-name="Layer 1"><circle class="cls-1" cx="116.83" cy="111.93" r="73.43"/><polygon class="cls-1" points="23.71 47.61 62.22 53.37 42.56 81.68 23.71 47.61"/><polygon class="cls-1" points="189.55 25.33 178.29 62.6 153.11 39.06 189.55 25.33"/><polygon class="cls-1" points="71.79 8.67 101.81 33.48 70.36 47.58 71.79 8.67"/><polygon class="cls-1" points="133.37 0 146.11 36.8 111.91 32.49 133.37 0"/><polygon class="cls-1" points="225.95 79.72 197.73 106.56 187.48 73.65 225.95 79.72"/><polygon class="cls-1" points="141.59 224.24 119.11 192.44 153.15 187.05 141.59 224.24"/><polygon class="cls-1" points="227.11 141.59 189.09 150.01 197.3 116.54 227.11 141.59"/><polygon class="cls-1" points="196.1 195.49 159.24 182.92 183.66 158.59 196.1 195.49"/><polygon class="cls-1" points="69.74 221.64 66.09 182.87 98.29 195.16 69.74 221.64"/><polygon class="cls-1" points="20.3 178.67 37.66 143.81 58.52 171.24 20.3 178.67"/><polygon class="cls-1" points="0 115.65 34.95 98.48 34.89 132.95 0 115.65"/></g></g></svg>