<?xml version="1.0" encoding="utf-8"?>
<!-- Generator: Adobe Illustrator 22.0.1, SVG Export Plug-In . SVG Version: 6.00 Build 0)  -->
<svg version="1.1" id="Layer_1" xmlns="http://www.w3.org/2000/svg" xmlns:xlink="http://www.w3.org/1999/xlink" x="0px" y="0px"
	 viewBox="0 0 1073.7 409.1" style="enable-background:new 0 0 1073.7 409.1;" xml:space="preserve">
<style type="text/css">
	.st0{enable-background:new    ;}
	.st1{fill:#FFFFFF;}
</style>
<title>Asset 4</title>
<g id="Layer_2_1_">
	<g id="Layer_1-2">
		<g class="st0">
			<path class="st1" d="M59.6,275.4c-3.4,0.6-6.4,1.2-9.1,2c-2.7,0.8-6,1.1-9.9,1.1c-4.3,0-7.6-1.2-9.9-3.7
				c-2.3-2.4-3.5-5.2-3.5-8.2c0-2.4,0.4-5.6,1.2-9.5c0.8-3.9,1.2-7.8,1.2-11.8c-0.8-15-1.9-29.8-3.2-44.5
				c-1.3-14.7-2.6-28.2-3.9-40.4c-1.3-12.2-2.4-22.6-3.3-31.3c-0.9-8.7-1.4-14.6-1.4-17.7c0-2.1,0.5-4,1.6-5.8
				c1-1.8,2.5-3.4,4.4-4.8c1.9-1.4,4-2.5,6.5-3.2c2.5-0.8,5.1-1.1,7.9-1.1c5.5,0,9.5,0.8,12,2.5c2.6,1.7,4.1,4.4,4.7,8.1
				c3.3,25,5.6,47.9,7.1,68.8c1.5,20.9,2.5,40.4,3.1,58.7c0,2.7,0.7,4.7,2.2,6.1c1.5,1.4,3.3,2.1,5.7,2.1c4.6,0,9.4-0.3,14.1-0.8
				c4.8-0.5,9.5-1.1,14.3-1.7c4.8-0.6,9.5-1.1,14.2-1.7c4.7-0.5,9.3-0.8,13.7-0.8c2.9,0,5.3,0.3,7.1,1c1.8,0.7,3.2,1.6,4.2,2.8
				c1,1.2,1.6,2.5,1.9,3.9c0.3,1.5,0.4,2.9,0.4,4.3c0,2.2-0.2,4.4-0.7,6.6c-0.5,2.2-1.3,4.2-2.4,6c-1.2,1.8-2.7,3.3-4.7,4.5
				c-2,1.2-4.5,1.9-7.5,2.2c-14.3,1.4-27.3,2.4-39.1,3.1C76.5,273.1,67,274.1,59.6,275.4z"/>
			<path class="st1" d="M181.9,201.8c0,15.6,2.4,27.6,7.1,36.1c4.8,8.5,11.7,12.7,20.7,12.7c5.7,0,11-1.7,15.8-5.1
				c4.8-3.4,9-8.1,12.5-14.1c3.5-6,6.2-13.2,8.1-21.5c1.9-8.3,2.9-17.3,2.9-27.1c0-5.9-0.2-11.1-0.7-15.4c-0.5-4.4-1-8.3-1.5-11.7
				c-0.5-3.4-1-6.5-1.5-9.2c-0.5-2.7-0.7-5.2-0.7-7.7c0-3.7,1.6-6.4,4.7-8.1c3.1-1.7,8.1-2.5,15-2.5c8.7,0,15.5,2,20.3,5.9
				c4.8,4,7.2,9.7,7.2,17.3c0,20.6-2,39.1-6,55.4c-4,16.4-9.8,30.3-17.3,41.8c-7.5,11.5-16.6,20.3-27.3,26.4
				c-10.7,6.2-22.7,9.2-35.9,9.2c-9.4,0-18.1-1.9-26.1-5.8c-8-3.9-14.8-9.4-20.6-16.4c-5.8-7-10.3-15.4-13.5-25.1
				c-3.3-9.7-4.9-20.4-4.9-32c0-4.4,0.1-9.1,0.3-14.1c0.2-5,0.6-10.4,1-16.1c0.5-5.8,1.1-12,1.8-18.7c0.8-6.7,1.6-14.1,2.5-22
				c0.3-3.4,1.9-6.1,4.8-8.1c2.8-2,6.5-3.1,10.9-3.1c4,0,7.7,0.4,11.2,1.2c3.5,0.8,6.5,1.9,9,3.3c2.5,1.4,4.5,3,5.9,4.9
				c1.5,1.9,2.2,3.8,2.2,5.9c0,2.1-0.4,5.4-1.3,9.9c-0.9,4.5-1.8,9.6-2.8,15.3c-1,5.8-1.9,12-2.8,18.7
				C182.3,188.7,181.9,195.3,181.9,201.8z"/>
			<path class="st1" d="M328.3,271c-0.8-15.5-2.1-29.7-3.9-42.8c-1.8-13.1-3.7-24.5-5.6-34.3c-1.9-9.8-3.6-17.7-5.1-23.7
				c-1.5-6-2.2-9.8-2.2-11.3c0-2.2,0.8-4.4,2.5-6.5c1.7-2.1,3.8-3.9,6.4-5.5c2.6-1.6,5.3-2.8,8.3-3.7c3-0.9,5.7-1.4,8.1-1.4
				c2,0,3.7,0.3,5.1,1c1.5,0.7,2.5,1.9,3.1,3.5c0.6,2,1.1,4,1.7,6.2c0.5,2.2,1.1,4.7,1.7,7.8c0.7,4.3,1.6,6.5,2.8,6.5
				c1.3,0,2.7-1.9,4.4-5.8c2.3-5.3,4.8-9.8,7.5-13.3c2.7-3.5,5.5-6.2,8.6-8.3c3.1-2,6.3-3.5,9.6-4.3c3.3-0.8,6.8-1.2,10.4-1.2
				c10.9,0,20.2,4.3,27.8,12.9c7.6,8.6,13.6,21,17.9,37.3c0.6,1.9,1.1,3.1,1.6,3.6c0.5,0.5,1,0.8,1.6,0.8c0.6,0,1.2-0.3,1.8-0.8
				c0.6-0.5,1.2-1.6,1.8-3.2c2.8-7.6,6-14,9.8-19.3c3.7-5.3,7.6-9.6,11.6-12.9c4-3.3,8.1-5.7,12.3-7.2c4.2-1.5,8.2-2.3,12-2.3
				c7.1,0,13.5,2.6,19.3,7.8c5.8,5.2,10.9,13.1,15.3,23.9c4.5,10.8,8.4,24.4,11.7,40.8c3.3,16.4,6.1,35.9,8.3,58.5
				c0,6.3-1.9,10.7-5.8,13.2c-3.8,2.5-9.1,3.7-15.7,3.7c-4.3,0-7.7-0.9-10.1-2.8c-2.4-1.9-3.8-4.3-4.2-7.3
				c-1.5-16.2-3.2-30.5-5-43.2c-1.8-12.6-3.7-23.2-5.8-31.9c-2.1-8.7-4.4-15.3-6.9-19.8c-2.5-4.5-5.3-6.8-8.3-6.8
				c-1.5,0-3.4,1.1-5.7,3.3c-2.3,2.2-4.7,6.2-7.2,12.1c-2.6,5.9-5.2,13.9-8,24.1c-2.8,10.2-5.5,23.2-8,39c-0.7,4.4-2.8,7.8-6.4,10.1
				c-3.5,2.3-7.9,3.5-13,3.5c-5.9,0-10-0.9-12.3-2.8c-2.3-1.9-3.5-5-3.7-9.4c-0.5-7.7-1.3-15.3-2.4-22.9c-1.1-7.6-2.5-14.9-4.1-21.8
				c-1.6-6.9-3.4-13.3-5.4-19.2c-2-5.9-4.1-11-6.3-15.3c-2.2-4.4-4.5-7.8-6.8-10.2c-2.3-2.4-4.6-3.7-6.8-3.7c-2.9,0-5.7,2-8.5,6.1
				c-2.7,4.1-5.2,9.8-7.3,17.3c-2.2,7.4-3.9,16.4-5.1,26.9c-1.3,10.5-1.9,22.1-1.9,35c0,2.2,0.1,4.4,0.2,6.5
				c0.1,2.2,0.2,4.4,0.2,6.7c0,3.5-0.6,6.3-1.7,8.5c-1.1,2.2-2.7,4-4.7,5.2c-2,1.3-4.4,2.1-7.1,2.6c-2.7,0.5-5.6,0.7-8.7,0.7
				c-2.9,0-5.2-0.2-7-0.6c-1.7-0.4-3.1-1-4-1.8c-0.9-0.8-1.6-1.9-1.9-3.2C328.7,274.3,328.4,272.8,328.3,271z"/>
			<path class="st1" d="M592.5,85.7c-3.4,0-6.5-0.5-9.5-1.5c-3-1-5.5-2.4-7.7-4.2c-2.2-1.8-3.9-3.9-5.1-6.4c-1.3-2.4-1.9-5.1-1.9-8
				c0-4.9,1.9-8.8,5.8-11.9c3.9-3,9.1-4.5,15.6-4.5c3,0,5.9,0.6,8.7,1.7c2.8,1.1,5.3,2.6,7.4,4.4c2.1,1.9,3.9,4,5.1,6.5
				c1.3,2.5,1.9,5.1,1.9,7.8c0,5-1.8,8.9-5.5,11.8C603.7,84.3,598.7,85.7,592.5,85.7z M568.6,138.9c0-4.1,1.8-7.4,5.3-10
				c3.5-2.6,8.2-3.9,14-3.9c10.5,0,16,3.6,16.7,10.8c0.5,5,1,10.6,1.5,16.9c0.5,6.3,1,12.9,1.6,20c0.5,7,1,14.3,1.4,21.8
				c0.4,7.5,0.8,14.9,1.1,22.1c0.3,7.3,0.6,14.3,0.9,21c0.2,6.7,0.3,12.9,0.3,18.5c0,5.8-2.1,10.2-6.2,13.1
				c-4.1,2.9-10.1,4.4-18,4.4c-3.6,0-6.4-0.8-8.5-2.5c-2-1.7-3.1-4.2-3.1-7.4c0-16-0.4-31.1-1.1-45.1c-0.8-14-1.6-26.5-2.4-37.4
				c-0.9-10.9-1.7-20-2.4-27.3C568.9,146.5,568.6,141.6,568.6,138.9z"/>
			<path class="st1" d="M800.6,98.6c0,4.5-1.5,8.8-4.4,12.7c-3,4-6.7,7.8-11.2,11.5c-4.5,3.7-9.3,7.3-14.6,10.8
				c-5.2,3.5-10.1,7-14.6,10.6c-4.5,3.6-8.2,7.3-11.2,11c-3,3.7-4.4,7.7-4.4,11.9c0,3.5,2.4,6.9,7.3,10.1c4.9,3.3,11.9,6.5,21.1,9.8
				c9.2,3.3,20.3,6.6,33.3,10c13,3.4,27.7,7.1,43.9,10.9c8.1,2.2,12.2,6.3,12.2,12.4c0,2.3-0.6,4.6-1.7,6.8
				c-1.1,2.2-2.6,4.2-4.4,5.8c-1.9,1.7-4,3.1-6.4,4.1c-2.4,1-4.8,1.6-7.2,1.6c-5.8,0-12.4-0.9-19.8-2.6c-7.4-1.7-15-3.9-22.9-6.5
				c-7.9-2.6-15.8-5.4-23.7-8.5c-7.9-3.1-15.3-5.9-22.2-8.5c-6.9-2.6-13-4.7-18.3-6.5c-5.3-1.7-9.3-2.6-11.9-2.6c-2.1,0-4.1,1-6,2.9
				c-1.9,1.9-3.7,4.6-5.2,7.9c-1.6,3.4-2.9,7.4-3.9,11.9c-1,4.6-1.8,9.6-2.3,15.1c-0.6,6.2-2.8,10.7-6.5,13.7c-3.8,3-9,4.4-15.6,4.4
				c-6.9,0-10.8-3.2-11.9-9.6c-1.7-9.8-3.9-19.7-6.4-29.8c-2.5-10.1-5.2-20.2-8.2-30.3c-3-10.1-6.2-20.1-9.6-30
				c-3.4-9.9-7-19.4-10.7-28.4c-0.9-2-1.6-3.8-2-5.5c-0.4-1.7-0.6-3.4-0.6-5.1c0-1.5,0.5-2.9,1.4-4.3c0.9-1.3,2.2-2.5,3.8-3.6
				c1.6-1,3.5-1.9,5.7-2.4c2.1-0.6,4.4-0.9,6.7-0.9c4.8,0,8.5,1,11.3,3c2.8,2,5.6,4.9,8.5,8.9c1.4,1.9,2.7,4.3,4,7.4
				c1.3,3.1,2.5,6.4,3.7,9.9c1.2,3.5,2.3,7,3.5,10.5c1.2,3.5,2.3,6.7,3.4,9.6c1.1,2.8,2.2,5.2,3.3,7c1.1,1.8,2.2,2.7,3.2,2.7
				c0.9,0,1.7-0.4,2.4-1.2c0.6-0.8,1.4-2,2.4-3.7c6-12.6,12.7-24,19.9-34.4c7.2-10.4,14.6-19.3,22.1-26.7
				c7.6-7.4,15.1-13.1,22.8-17.2c7.6-4.1,14.9-6.1,21.9-6.1c2.8,0,5.4,0.5,7.8,1.5c2.4,1,4.6,2.4,6.4,4.1c1.8,1.7,3.2,3.8,4.3,6.2
				C800.1,93.4,800.6,95.9,800.6,98.6z"/>
			<path class="st1" d="M866.5,85.7c-3.4,0-6.5-0.5-9.5-1.5c-3-1-5.5-2.4-7.7-4.2c-2.2-1.8-3.9-3.9-5.1-6.4c-1.3-2.4-1.9-5.1-1.9-8
				c0-4.9,1.9-8.8,5.8-11.9c3.9-3,9.1-4.5,15.6-4.5c3,0,5.9,0.6,8.7,1.7c2.8,1.1,5.3,2.6,7.4,4.4c2.1,1.9,3.9,4,5.1,6.5
				c1.3,2.5,1.9,5.1,1.9,7.8c0,5-1.8,8.9-5.5,11.8C877.8,84.3,872.8,85.7,866.5,85.7z M842.7,138.9c0-4.1,1.8-7.4,5.3-10
				c3.5-2.6,8.2-3.9,14-3.9c10.5,0,16,3.6,16.7,10.8c0.5,5,1,10.6,1.5,16.9c0.5,6.3,1,12.9,1.6,20c0.5,7,1,14.3,1.4,21.8
				c0.4,7.5,0.8,14.9,1.1,22.1c0.3,7.3,0.6,14.3,0.9,21c0.2,6.7,0.3,12.9,0.3,18.5c0,5.8-2.1,10.2-6.2,13.1
				c-4.1,2.9-10.1,4.4-18,4.4c-3.6,0-6.4-0.8-8.5-2.5c-2-1.7-3.1-4.2-3.1-7.4c0-16-0.4-31.1-1.1-45.1c-0.8-14-1.6-26.5-2.4-37.4
				c-0.9-10.9-1.7-20-2.4-27.3C843,146.5,842.7,141.6,842.7,138.9z"/>
			<path class="st1" d="M934,62.2c0-6.2,1.7-10.5,5.2-13c3.5-2.5,9.2-3.7,17.3-3.7c2.9,0,5.4,0.3,7.4,0.8c2,0.5,3.8,1.5,5.2,2.9
				c1.5,1.4,2.6,3.2,3.5,5.5c0.9,2.3,1.6,5.1,2.2,8.6c1.4,10.8,2.9,22,4.6,33.5c1.7,11.5,3.5,23.1,5.3,34.7c0.7,5.2,3.4,7.8,8.2,7.8
				c1.3,0,3.4-0.1,6.4-0.4c3-0.3,6.5-0.6,10.5-1c4.1-0.4,8.5-0.8,13.2-1.3c4.7-0.5,9.4-0.9,14.1-1.3c4.7-0.4,9.2-0.8,13.4-1
				c4.2-0.3,8-0.4,11.2-0.4c2.6,0,4.6,0.5,6.1,1.5c1.5,1,2.7,2.3,3.6,3.8s1.5,3.3,1.7,5.2c0.3,1.9,0.4,3.9,0.4,5.8
				c0,1.7-0.3,3.5-1,5.4c-0.6,1.9-1.5,3.5-2.6,5c-1.1,1.5-2.5,2.6-4.1,3.6c-1.6,0.9-3.5,1.4-5.6,1.4c-10.1,0-20.3,0.3-30.6,1
				c-10.3,0.6-20.5,1.5-30.8,2.5c-5.2,0.7-7.8,3.3-7.8,7.8c0,0.3,0.1,0.8,0.2,1.3c0.1,0.5,0.2,1,0.2,1.3c1.4,10.1,2.7,19.6,3.9,28.4
				c1.2,8.8,2.3,16.7,3.1,23.6c0.9,6.9,1.6,12.7,2.1,17.3c0.5,4.6,0.8,7.6,0.8,9.2c0,4.2-0.4,7.7-1.2,10.5c-0.8,2.8-2.2,5.2-4,7
				c-1.9,1.8-4.3,3.1-7.4,3.8c-3.1,0.8-6.9,1.1-11.6,1.1c-4.4,0-7.7-1-9.8-3.1c-2.1-2.1-3.3-5.3-3.5-9.6
				c-0.7-13.7-1.8-27.5-3.3-41.4c-1.5-13.9-3.3-27.7-5.2-41.6c-1-5-3.7-7.5-7.8-7.5c-0.3,0-0.8,0.1-1.2,0.2
				c-0.5,0.1-0.9,0.2-1.2,0.2c-7.2,1.6-14,3.3-20.4,4.9c-6.4,1.6-12.4,3.4-18,5.2c-3.1,1-5.9,1.8-8.4,2.2c-2.4,0.4-4.6,0.6-6.6,0.6
				c-2.7,0-4.6-1.2-5.9-3.6c-1.3-2.4-1.9-5.4-1.9-9c0-1.3,0.1-2.8,0.3-4.4c0.2-1.7,0.7-3.4,1.3-5.1c0.6-1.7,1.6-3.3,2.8-4.7
				c1.2-1.5,2.9-2.6,5-3.6c4.9-2,11.4-4,19.5-6.2c8.1-2.1,17.3-4.2,27.5-6c2.3-0.6,4.2-1.5,5.5-2.9c1.3-1.3,2-3.3,2-6
				c0-0.6,0-1.2,0-1.8c0-0.6-0.1-1.3-0.3-2c-1.9-10.7-3.6-20.4-5.3-29.2c-1.7-8.8-3.1-16.3-4.4-22.6c-1.2-6.3-2.2-11.2-2.9-14.8
				C934.4,64.8,934,62.7,934,62.2z"/>
		</g>
	</g>
</g>
</svg>
